<svg width="902" height="276" viewBox="0 0 902 276" fill="none" xmlns="http://www.w3.org/2000/svg">
<path fill-rule="evenodd" clip-rule="evenodd" d="M226.01 1.51397C223.184 3.49297 220.898 8.65397 220.878 13.101C220.853 18.293 219.753 19.081 210.65 20.427C198.136 22.277 192.06 25.579 181.393 36.324C176.233 41.522 170.388 46.367 167.695 47.681C162.091 50.413 158.348 54.582 156.937 59.664C155.764 63.886 155.686 84.181 156.793 96.883C157.69 107.174 156.951 109.698 151.84 113.805C146.756 117.891 145.612 120.269 142.902 132.383C141.671 137.883 140.073 143.058 139.35 143.883C138.627 144.708 137.095 147.578 135.945 150.262L133.854 155.14L136.391 159.47C138.387 162.876 139.671 163.938 142.411 164.452C146.327 165.187 152.522 164.293 153.404 162.865C154.085 161.764 152.393 158.337 149.792 155.545C148.786 154.464 148.21 153.179 148.514 152.688C148.817 152.197 148.583 151.214 147.993 150.503C145.973 148.069 149.187 139.588 155.4 130.958C164.412 118.442 165.196 118.994 156.517 131.744C147.475 145.028 147.172 146.923 153.893 148.17C159.256 149.165 176.346 148.246 179.012 146.819C182.455 144.976 181.148 143.078 175.643 141.927C170.49 140.85 166.053 138.93 168.643 138.898C169.331 138.89 169.893 138.433 169.893 137.883C169.893 137.333 168.993 136.883 167.893 136.883C166.793 136.883 165.893 136.534 165.893 136.107C165.893 134.699 176.865 121.484 182.561 116.033C186.804 111.971 188.357 111.007 189.007 112.033C189.477 112.775 189.869 113.71 189.878 114.111C189.886 114.511 194.055 118.243 199.143 122.404C204.231 126.566 210.643 131.815 213.393 134.069C216.143 136.324 219.853 138.784 221.637 139.537C223.422 140.289 227.247 142.698 230.137 144.89C233.028 147.081 236.344 148.876 237.507 148.879C238.669 148.881 240.694 149.947 242.007 151.248C244.822 154.039 252.083 157.883 254.539 157.883C255.488 157.883 257.193 158.739 258.329 159.784C262.24 163.387 284.269 170.374 295.157 171.466C304.824 172.435 309.023 170.603 315.356 162.651C321.786 154.579 329.387 142.344 334.301 132.158C338.006 124.477 338.137 123.885 336.832 120.72C330.464 105.272 265.82 64.929 226.513 51.873L218.557 49.23L221.317 47.306C229.024 41.936 230.335 40.261 230.373 35.74C230.42 30.09 231.307 28.816 234.719 29.498C237.003 29.955 237.707 29.569 238.889 27.215C239.67 25.658 240.779 23.751 241.352 22.979C241.924 22.207 242.479 20.407 242.584 18.979C242.689 17.551 243.069 14.98 243.428 13.265C244.387 8.68897 241.657 4.13297 236.577 1.82597C231.416 -0.51703 229.01 -0.58803 226.01 1.51397ZM669.87 74.063C646.508 114.312 627.243 147.612 627.06 148.063C626.876 148.514 633.72 148.883 642.267 148.883H657.807L663.057 139.883L668.306 130.883H712.893H757.48L762.729 139.883L767.979 148.883H783.512H799.046L795.219 142.062C784.052 122.154 713.316 0.88497 712.87 0.88397C712.583 0.88297 693.233 33.814 669.87 74.063ZM357.136 82.903L357.393 148.383H370.697H384.001L383.921 116.133C383.877 98.396 384.14 83.883 384.505 83.883C384.87 83.883 393.094 91.472 402.781 100.747L420.393 117.611L437.893 100.765C447.518 91.499 455.718 83.91 456.115 83.901C456.512 83.891 456.836 98.395 456.835 116.133L456.833 148.383H470.113H483.393L483.65 83.133C483.792 47.245 483.567 17.9 483.15 17.921C482.734 17.942 468.443 31.879 451.393 48.893L420.393 79.826L395.893 55.595C382.418 42.267 368.127 28.226 364.136 24.393L356.878 17.422L357.136 82.903ZM24.0981 24.37C16.5501 26.055 12.1071 28.647 7.4641 34.071C0.811101 41.843 0.548101 43.535 0.104101 81.383C-0.162899 104.167 0.0831006 117.527 0.849101 121.883C3.0521 134.412 10.0551 142.899 21.1871 146.53C25.5011 147.937 31.7641 148.299 57.7291 148.642C92.3181 149.099 102.161 148.313 109.631 144.495C120.617 138.881 125.013 130.709 125.694 114.633L126.15 103.883H112.521H98.8931V110.383C98.8931 117.829 97.2431 120.353 91.6991 121.389C89.8811 121.729 75.6411 121.866 60.0551 121.695L31.7171 121.383L29.3051 118.577L26.8931 115.771V86.278C26.8931 54.5 27.2841 51.815 32.1031 50.524C33.3621 50.186 47.8011 49.904 64.1881 49.897L93.9841 49.883L96.4381 52.338C98.5451 54.444 98.8931 55.721 98.8931 61.338V67.883H112.521H126.15L125.7 56.967C125.298 47.214 124.911 45.362 122.065 39.581C118.529 32.399 114.498 28.752 106.525 25.522C101.707 23.571 99.2201 23.429 65.8931 23.204C38.3391 23.018 28.9841 23.279 24.0981 24.37ZM501.352 24.133C501.089 24.821 500.991 53.058 501.134 86.883L501.393 148.383L546.893 148.657C593.846 148.94 602.603 148.432 610.427 144.971C615.924 142.539 621.605 136.719 624.053 131.012C628.386 120.907 628.367 98.906 624.016 89.901C622.053 85.839 622.053 85.776 623.986 81.405C628.411 71.402 628.455 50.437 624.072 40.574C619.993 31.397 612.712 26.06 601.419 23.972C592.537 22.331 501.986 22.476 501.352 24.133ZM775.893 36.383V49.883H800.384H824.874L825.134 99.133L825.393 148.383L838.634 148.662L851.874 148.941L852.134 99.662L852.393 50.383L877.143 50.116L901.893 49.848V36.366V22.883H838.893H775.893V36.383ZM597.258 51.956C599.652 53.838 599.893 54.663 599.893 60.956C599.893 72.51 602.068 71.883 562.01 71.883H528.127L527.969 61.853C527.883 56.337 528.082 51.387 528.411 50.853C528.779 50.258 541.694 49.883 561.817 49.883C593.492 49.883 594.714 49.954 597.258 51.956ZM726.59 77.633C733.842 90.146 740.075 101.17 740.441 102.133C741.066 103.774 739.352 103.883 712.927 103.883C690.478 103.883 684.812 103.622 685.07 102.599C685.546 100.706 712.245 54.883 712.872 54.883C713.165 54.883 719.338 65.12 726.59 77.633ZM192.893 68.383C192.893 69.208 192.716 69.883 192.5 69.883C192.284 69.883 191.848 69.208 191.531 68.383C191.215 67.558 191.392 66.883 191.924 66.883C192.457 66.883 192.893 67.558 192.893 68.383ZM247.091 69.503C263.829 74.785 295.742 93.375 304.177 102.756C308.558 107.628 308.298 109.368 303.489 107.359C287.454 100.659 267.979 90.232 247.893 77.593C236.938 70.7 234.733 68.952 235.476 67.749C236.307 66.404 238.155 66.683 247.091 69.503ZM177.877 102.913C176.247 105.959 175.568 104.69 177.068 101.399C177.755 99.89 178.476 99.132 178.67 99.714C178.864 100.296 178.507 101.736 177.877 102.913ZM597.79 101.288C599.556 102.888 599.893 104.345 599.893 110.383C599.893 122.009 602.046 121.383 562.039 121.383H528.393L528.105 111.454C527.946 105.993 528.053 100.908 528.342 100.154C528.777 99.022 534.693 98.835 562.277 99.083C593.491 99.363 595.824 99.508 597.79 101.288ZM722.791 172.146C716.603 176.268 716.046 178.869 716.639 200.883L717.164 220.383L720.911 224.133L724.658 227.883H735.275C746.463 227.883 747.383 227.436 744.377 223.463C741.537 219.71 737.556 217.896 732.143 217.89L726.893 217.883V198.826V179.768L731.143 180.076L735.393 180.383V184.883V189.383L740.643 189.685L745.893 189.988V179.935V169.883H736.041C727.474 169.883 725.745 170.178 722.791 172.146ZM772.775 173.765L768.893 177.648V197.815C768.893 213.751 769.206 218.589 770.387 220.872C772.717 225.377 775.655 226.883 782.116 226.883C787.611 226.883 787.893 227.005 787.893 229.383C787.893 231.753 788.186 231.883 793.504 231.883H799.116L798.461 228.133C798.038 225.706 796.593 223.236 794.365 221.133C791.361 218.297 790.238 217.883 785.552 217.883H780.182L779.545 211.133C779.194 207.42 778.904 198.62 778.9 191.576L778.893 178.768L783.143 179.076L787.393 179.383L787.695 184.633L787.998 189.883H792.945H797.893V179.883V169.883H787.275H776.658L772.775 173.765ZM614.089 171.596L611.784 172.036L611.955 199.71C612.049 214.93 612.358 228.846 612.641 230.633C613.139 233.784 613.303 233.883 618.024 233.883C622.226 233.883 622.893 233.609 622.893 231.883C622.893 230.783 622.331 229.876 621.643 229.868C620.686 229.856 620.699 229.659 621.698 229.025C622.719 228.377 622.963 223.106 622.821 204.79L622.64 181.383L626.766 181.076L630.893 180.768L630.9 198.076C630.904 207.595 631.194 218.42 631.545 222.133L632.182 228.883H637.038H641.893L641.891 205.633C641.89 179.603 641.433 177.454 634.995 173.153C632.144 171.248 630.375 170.905 623.995 171.019C619.814 171.094 615.356 171.354 614.089 171.596ZM670.313 172.769C668.619 173.802 666.42 176.361 665.426 178.455C663.769 181.947 663.683 184.184 664.398 205.323C664.826 218.006 665.118 229.395 665.046 230.633C664.927 232.683 665.359 232.883 669.904 232.883C674.559 232.883 674.893 232.716 674.893 230.383C674.893 228.087 675.26 227.883 679.393 227.883H683.893V223.44V218.998L679.643 218.69L675.393 218.383L675.121 199.133L674.85 179.883H678.839H682.827L683.11 191.133L683.393 202.383L688.643 202.685L693.893 202.988V186.935V170.883L683.643 170.887C675.379 170.89 672.796 171.254 670.313 172.769ZM510.643 172.602L505.893 172.993V177.438V181.883H510.893H515.893L515.999 201.633C516.058 212.496 516.206 222.058 516.328 222.883C516.451 223.708 516.628 226.746 516.722 229.633L516.893 234.883H521.893C526.174 234.883 526.893 234.604 526.893 232.943C526.893 231.438 526.053 230.916 523.143 230.611L519.393 230.219L523.143 230.051L526.893 229.883V205.938V181.993L531.643 181.688L536.393 181.383V176.883V172.383L525.893 172.298C520.118 172.251 513.255 172.388 510.643 172.602ZM558.893 176.383V180.883H563.893H568.893L569.014 203.133C569.08 215.371 569.12 227.295 569.102 229.633L569.07 233.883H574.512H579.954L579.854 207.633L579.755 181.383L584.324 181.078L588.893 180.773V176.328V171.883H573.893H558.893V176.383ZM460.192 174.843C454.09 178.563 453.753 180.319 454.09 206.685L454.393 230.383L458.393 230.991L462.393 231.599L458.643 231.741C456.039 231.84 454.893 232.342 454.893 233.383C454.893 234.519 456.122 234.883 459.956 234.883C464.632 234.883 464.995 234.711 464.706 232.633C464.424 230.609 464.865 230.353 469.081 230.081L473.769 229.778L473.581 225.581C473.393 221.391 473.385 221.382 469.143 221.076L464.893 220.768L464.774 204.076C464.709 194.895 464.596 186.258 464.524 184.883C464.406 182.632 464.816 182.352 468.643 182.076L472.893 181.768V193.326V204.883H478.393H483.893V188.883V172.883L473.643 172.887C465.241 172.89 462.816 173.242 460.192 174.843ZM735.893 230.773C735.893 232.393 736.691 232.84 740.143 233.151L744.393 233.534L740.143 233.708C737.11 233.833 735.893 234.312 735.893 235.383C735.893 236.533 737.164 236.883 741.336 236.883H746.779L746.544 233.133L746.308 229.383L741.101 229.081C736.463 228.812 735.893 228.997 735.893 230.773ZM631.893 231.828C631.893 233.43 632.733 233.84 636.643 234.148L641.393 234.523L636.643 234.703C633.168 234.835 631.893 235.285 631.893 236.383C631.893 237.516 633.115 237.883 636.893 237.883H641.893V233.883V229.883H636.893C632.607 229.883 631.893 230.161 631.893 231.828ZM788.089 234.633C788.571 237.096 798.229 236.998 798.716 234.525C798.986 233.158 798.094 232.883 793.393 232.883C788.551 232.883 787.795 233.132 788.089 234.633ZM664.893 235.883C664.893 237.616 665.56 237.883 669.893 237.883C674.226 237.883 674.893 237.616 674.893 235.883C674.893 234.15 674.226 233.883 669.893 233.883C665.56 233.883 664.893 234.15 664.893 235.883ZM569.893 236.883C569.893 238.616 570.56 238.883 574.893 238.883C579.226 238.883 579.893 238.616 579.893 236.883C579.893 235.15 579.226 234.883 574.893 234.883C570.56 234.883 569.893 235.15 569.893 236.883ZM612.893 236.383C612.893 237.516 614.115 237.883 617.893 237.883C621.671 237.883 622.893 237.516 622.893 236.383C622.893 235.25 621.671 234.883 617.893 234.883C614.115 234.883 612.893 235.25 612.893 236.383ZM454.629 236.481C454.3 236.81 454.273 237.71 454.569 238.481C454.929 239.419 456.725 239.883 460 239.883C464.226 239.883 464.893 239.611 464.893 237.883C464.893 236.159 464.226 235.883 460.06 235.883C457.401 235.883 454.957 236.152 454.629 236.481ZM516.893 237.383C516.893 238.516 518.115 238.883 521.893 238.883C525.671 238.883 526.893 238.516 526.893 237.383C526.893 236.25 525.671 235.883 521.893 235.883C518.115 235.883 516.893 236.25 516.893 237.383ZM735.893 239.883C735.893 241.794 736.377 241.96 741.143 241.685C745.009 241.463 746.393 240.987 746.393 239.883C746.393 238.779 745.009 238.303 741.143 238.081C736.377 237.806 735.893 237.972 735.893 239.883ZM787.893 239.383C787.893 240.535 789.171 240.883 793.393 240.883C797.615 240.883 798.893 240.535 798.893 239.383C798.893 238.231 797.615 237.883 793.393 237.883C789.171 237.883 787.893 238.231 787.893 239.383ZM612.893 240.883C612.893 242.616 613.56 242.883 617.893 242.883C622.226 242.883 622.893 242.616 622.893 240.883C622.893 239.15 622.226 238.883 617.893 238.883C613.56 238.883 612.893 239.15 612.893 240.883ZM631.893 240.883C631.893 242.616 632.56 242.883 636.893 242.883C641.226 242.883 641.893 242.616 641.893 240.883C641.893 239.15 641.226 238.883 636.893 238.883C632.56 238.883 631.893 239.15 631.893 240.883ZM664.893 240.383C664.893 241.516 666.115 241.883 669.893 241.883C673.671 241.883 674.893 241.516 674.893 240.383C674.893 239.25 673.671 238.883 669.893 238.883C666.115 238.883 664.893 239.25 664.893 240.383ZM517.56 240.55C517.193 240.916 516.893 241.816 516.893 242.55C516.893 243.483 518.393 243.883 521.893 243.883C526.226 243.883 526.893 243.616 526.893 241.883C526.893 240.191 526.226 239.883 522.56 239.883C520.176 239.883 517.926 240.183 517.56 240.55ZM569.893 241.383C569.893 242.516 571.115 242.883 574.893 242.883C578.671 242.883 579.893 242.516 579.893 241.383C579.893 240.25 578.671 239.883 574.893 239.883C571.115 239.883 569.893 240.25 569.893 241.383ZM454.893 242.99C454.893 244.5 455.341 244.925 456.475 244.49C457.345 244.156 459.595 243.883 461.475 243.883C463.847 243.883 464.893 243.424 464.893 242.383C464.893 241.25 463.671 240.883 459.893 240.883C455.475 240.883 454.893 241.128 454.893 242.99ZM788.393 242.883C787.177 244.851 789.09 245.883 793.952 245.883C798.226 245.883 798.893 245.613 798.893 243.883C798.893 242.153 798.226 241.883 793.952 241.883C791.234 241.883 788.733 242.333 788.393 242.883ZM735.893 244.383C735.893 245.535 737.171 245.883 741.393 245.883C745.615 245.883 746.893 245.535 746.893 244.383C746.893 243.231 745.615 242.883 741.393 242.883C737.171 242.883 735.893 243.231 735.893 244.383ZM612.893 245.383C612.893 246.516 614.115 246.883 617.893 246.883C621.671 246.883 622.893 246.516 622.893 245.383C622.893 244.25 621.671 243.883 617.893 243.883C614.115 243.883 612.893 244.25 612.893 245.383ZM631.893 245.383C631.893 246.516 633.115 246.883 636.893 246.883C640.671 246.883 641.893 246.516 641.893 245.383C641.893 244.25 640.671 243.883 636.893 243.883C633.115 243.883 631.893 244.25 631.893 245.383ZM664.893 245.383C664.893 246.516 666.115 246.883 669.893 246.883C673.671 246.883 674.893 246.516 674.893 245.383C674.893 244.25 673.671 243.883 669.893 243.883C666.115 243.883 664.893 244.25 664.893 245.383ZM683.893 245.435C683.893 246.677 684.927 246.927 689.064 246.685C696.471 246.252 696.82 243.883 689.476 243.883C685.096 243.883 683.893 244.218 683.893 245.435ZM516.893 246.383C516.893 247.516 518.115 247.883 521.893 247.883C525.671 247.883 526.893 247.516 526.893 246.383C526.893 245.25 525.671 244.883 521.893 244.883C518.115 244.883 516.893 245.25 516.893 246.383ZM569.893 246.383C569.893 247.516 571.115 247.883 574.893 247.883C578.671 247.883 579.893 247.516 579.893 246.383C579.893 245.25 578.671 244.883 574.893 244.883C571.115 244.883 569.893 245.25 569.893 246.383ZM454.893 247.383C454.893 248.516 456.115 248.883 459.893 248.883C463.671 248.883 464.893 248.516 464.893 247.383C464.893 246.25 463.671 245.883 459.893 245.883C456.115 245.883 454.893 246.25 454.893 247.383ZM787.893 248.383C787.893 249.535 789.171 249.883 793.393 249.883C797.615 249.883 798.893 249.535 798.893 248.383C798.893 247.231 797.615 246.883 793.393 246.883C789.171 246.883 787.893 247.231 787.893 248.383ZM664.893 249.383C664.893 250.516 666.115 250.883 669.893 250.883C673.671 250.883 674.893 250.516 674.893 249.383C674.893 248.25 673.671 247.883 669.893 247.883C666.115 247.883 664.893 248.25 664.893 249.383ZM683.893 249.383C683.893 250.683 684.846 250.93 688.906 250.685C695.588 250.282 695.754 248.461 689.143 248.081C684.865 247.834 683.893 248.076 683.893 249.383ZM736.143 249.133C736.372 249.821 737.085 250.338 737.726 250.283C738.368 250.228 740.693 250.116 742.893 250.033C749.046 249.802 747.633 247.883 741.31 247.883C737.287 247.883 735.843 248.233 736.143 249.133ZM569.893 250.383C569.893 251.516 571.115 251.883 574.893 251.883C578.671 251.883 579.893 251.516 579.893 250.383C579.893 249.25 578.671 248.883 574.893 248.883C571.115 248.883 569.893 249.25 569.893 250.383ZM612.893 250.383C612.893 251.516 614.115 251.883 617.893 251.883C621.671 251.883 622.893 251.516 622.893 250.383C622.893 249.25 621.671 248.883 617.893 248.883C614.115 248.883 612.893 249.25 612.893 250.383ZM631.893 250.383C631.893 252.043 632.657 252.148 638.143 251.241C643.538 250.349 642.76 248.883 636.893 248.883C633.115 248.883 631.893 249.25 631.893 250.383ZM454.893 251.383C454.893 252.516 456.115 252.883 459.893 252.883C463.671 252.883 464.893 252.516 464.893 251.383C464.893 250.25 463.671 249.883 459.893 249.883C456.115 249.883 454.893 250.25 454.893 251.383ZM516.893 251.383C516.893 252.516 518.115 252.883 521.893 252.883C525.671 252.883 526.893 252.516 526.893 251.383C526.893 250.25 525.671 249.883 521.893 249.883C518.115 249.883 516.893 250.25 516.893 251.383ZM735.893 253.383C735.893 254.535 737.171 254.883 741.393 254.883C745.615 254.883 746.893 254.535 746.893 253.383C746.893 252.231 745.615 251.883 741.393 251.883C737.171 251.883 735.893 252.231 735.893 253.383ZM788.143 253.133C788.4 253.903 790.415 254.383 793.393 254.383C796.371 254.383 798.386 253.903 798.643 253.133C798.944 252.231 797.482 251.883 793.393 251.883C789.304 251.883 787.842 252.231 788.143 253.133ZM612.893 254.383C612.893 255.516 614.115 255.883 617.893 255.883C621.671 255.883 622.893 255.516 622.893 254.383C622.893 253.25 621.671 252.883 617.893 252.883C614.115 252.883 612.893 253.25 612.893 254.383ZM631.893 254.383C631.893 255.516 633.115 255.883 636.893 255.883C640.671 255.883 641.893 255.516 641.893 254.383C641.893 253.25 640.671 252.883 636.893 252.883C633.115 252.883 631.893 253.25 631.893 254.383ZM664.893 254.383C664.893 255.516 666.115 255.883 669.893 255.883C673.671 255.883 674.893 255.516 674.893 254.383C674.893 253.25 673.671 252.883 669.893 252.883C666.115 252.883 664.893 253.25 664.893 254.383ZM683.893 254.435C683.893 255.677 684.927 255.927 689.064 255.685C696.471 255.252 696.82 252.883 689.476 252.883C685.096 252.883 683.893 253.218 683.893 254.435ZM517.56 254.55C515.933 256.176 517.246 256.883 521.893 256.883C525.671 256.883 526.893 256.516 526.893 255.383C526.893 254.28 525.745 253.883 522.56 253.883C520.176 253.883 517.926 254.183 517.56 254.55ZM569.893 255.383C569.893 256.516 571.115 256.883 574.893 256.883C578.671 256.883 579.893 256.516 579.893 255.383C579.893 254.25 578.671 253.883 574.893 253.883C571.115 253.883 569.893 254.25 569.893 255.383ZM454.893 256.383C454.893 257.516 456.115 257.883 459.893 257.883C463.671 257.883 464.893 257.516 464.893 256.383C464.893 255.25 463.671 254.883 459.893 254.883C456.115 254.883 454.893 255.25 454.893 256.383ZM788.56 256.55C786.901 258.209 788.298 258.883 793.393 258.883C797.615 258.883 798.893 258.535 798.893 257.383C798.893 256.257 797.689 255.883 794.06 255.883C791.401 255.883 788.926 256.183 788.56 256.55ZM686.143 257.567C684.906 257.817 683.893 258.464 683.893 259.005C683.893 260.295 693.846 259.692 694.156 258.383C694.412 257.302 689.782 256.83 686.143 257.567ZM716.893 258.435C716.893 259.677 717.927 259.927 722.064 259.685C729.471 259.252 729.82 256.883 722.476 256.883C718.096 256.883 716.893 257.218 716.893 258.435ZM736.143 258.133C736.4 258.903 738.415 259.383 741.393 259.383C744.371 259.383 746.386 258.903 746.643 258.133C746.944 257.231 745.482 256.883 741.393 256.883C737.304 256.883 735.842 257.231 736.143 258.133ZM768.893 257.883C768.893 258.433 771.368 258.883 774.393 258.883C777.418 258.883 779.893 258.433 779.893 257.883C779.893 257.333 777.418 256.883 774.393 256.883C771.368 256.883 768.893 257.333 768.893 257.883ZM612.893 259.383C612.893 260.516 614.115 260.883 617.893 260.883C621.671 260.883 622.893 260.516 622.893 259.383C622.893 258.25 621.671 257.883 617.893 257.883C614.115 257.883 612.893 258.25 612.893 259.383ZM631.893 259.383C631.893 260.516 633.115 260.883 636.893 260.883C640.671 260.883 641.893 260.516 641.893 259.383C641.893 258.25 640.671 257.883 636.893 257.883C633.115 257.883 631.893 258.25 631.893 259.383ZM664.893 258.883C664.893 259.433 667.368 259.883 670.393 259.883C673.418 259.883 675.893 259.433 675.893 258.883C675.893 258.333 673.418 257.883 670.393 257.883C667.368 257.883 664.893 258.333 664.893 258.883ZM516.893 260.383C516.893 261.516 518.115 261.883 521.893 261.883C525.671 261.883 526.893 261.516 526.893 260.383C526.893 259.25 525.671 258.883 521.893 258.883C518.115 258.883 516.893 259.25 516.893 260.383ZM569.893 259.883C569.893 260.433 572.143 260.883 574.893 260.883C577.643 260.883 579.893 260.433 579.893 259.883C579.893 259.333 577.643 258.883 574.893 258.883C572.143 258.883 569.893 259.333 569.893 259.883ZM454.893 260.883C454.893 261.433 457.143 261.883 459.893 261.883C462.643 261.883 464.893 261.433 464.893 260.883C464.893 260.333 462.643 259.883 459.893 259.883C457.143 259.883 454.893 260.333 454.893 260.883ZM769.587 261.522C768.16 262.949 770.282 263.883 774.952 263.883C778.677 263.883 779.893 263.514 779.893 262.383C779.893 261.257 778.689 260.883 775.06 260.883C772.401 260.883 769.939 261.171 769.587 261.522ZM788.587 261.522C787.226 262.883 788.901 263.369 793.797 263.036C796.6 262.846 798.893 262.283 798.893 261.786C798.893 260.769 789.579 260.53 788.587 261.522ZM665.561 262.548C663.857 264.252 665.302 264.963 669.906 264.685C672.663 264.519 674.92 263.933 674.92 263.383C674.922 262.256 666.596 261.514 665.561 262.548ZM683.893 262.883C683.893 263.433 686.368 263.883 689.393 263.883C692.418 263.883 694.893 263.433 694.893 262.883C694.893 262.333 692.418 261.883 689.393 261.883C686.368 261.883 683.893 262.333 683.893 262.883ZM716.893 262.883C716.893 263.433 719.368 263.883 722.393 263.883C725.418 263.883 727.893 263.433 727.893 262.883C727.893 262.333 725.418 261.883 722.393 261.883C719.368 261.883 716.893 262.333 716.893 262.883ZM735.893 262.883C735.893 263.433 738.368 263.883 741.393 263.883C744.418 263.883 746.893 263.433 746.893 262.883C746.893 262.333 744.418 261.883 741.393 261.883C738.368 261.883 735.893 262.333 735.893 262.883ZM569.893 264.383C569.893 265.516 571.115 265.883 574.893 265.883C578.671 265.883 579.893 265.516 579.893 264.383C579.893 263.25 578.671 262.883 574.893 262.883C571.115 262.883 569.893 263.25 569.893 264.383ZM612.893 263.883C612.893 264.433 615.143 264.883 617.893 264.883C620.643 264.883 622.893 264.433 622.893 263.883C622.893 263.333 620.643 262.883 617.893 262.883C615.143 262.883 612.893 263.333 612.893 263.883ZM631.893 263.883C631.893 264.433 634.143 264.883 636.893 264.883C639.643 264.883 641.893 264.433 641.893 263.883C641.893 263.333 639.643 262.883 636.893 262.883C634.143 262.883 631.893 263.333 631.893 263.883ZM457.643 264.599C453.023 265.299 454.583 266.883 459.893 266.883C463.671 266.883 464.893 266.516 464.893 265.383C464.893 263.883 463.423 263.724 457.643 264.599ZM516.893 264.883C516.893 265.433 519.143 265.883 521.893 265.883C524.643 265.883 526.893 265.433 526.893 264.883C526.893 264.333 524.643 263.883 521.893 263.883C519.143 263.883 516.893 264.333 516.893 264.883ZM724.143 266.626C713.614 267.127 715.177 268.885 726.143 268.874C737.218 268.864 745.893 267.928 745.893 266.744C745.893 265.918 739.716 265.884 724.143 266.626ZM768.893 266.883C768.893 267.504 774.393 267.883 783.393 267.883C792.393 267.883 797.893 267.504 797.893 266.883C797.893 266.262 792.393 265.883 783.393 265.883C774.393 265.883 768.893 266.262 768.893 266.883ZM631.893 268.514C631.893 269.842 632.589 270.03 635.643 269.525C637.706 269.184 640.207 268.9 641.202 268.894C642.197 268.888 642.733 268.433 642.393 267.883C642.053 267.333 639.552 266.883 636.834 266.883C632.932 266.883 631.893 267.226 631.893 268.514ZM665.393 267.883C665.759 268.475 671.903 268.883 680.452 268.883C689.413 268.883 694.893 268.504 694.893 267.883C694.893 267.261 689.207 266.883 679.834 266.883C670.049 266.883 664.991 267.233 665.393 267.883ZM517.643 268.629C511.616 268.809 506.893 269.375 506.893 269.917C506.893 270.973 530.874 271.263 534.643 270.253C538.421 269.24 537.15 267.87 532.643 268.095C530.306 268.212 523.556 268.452 517.643 268.629ZM569.893 268.883C569.893 269.433 572.143 269.883 574.893 269.883C577.643 269.883 579.893 269.433 579.893 268.883C579.893 268.333 577.643 267.883 574.893 267.883C572.143 267.883 569.893 268.333 569.893 268.883ZM612.893 268.883C612.893 269.433 615.143 269.883 617.893 269.883C620.643 269.883 622.893 269.433 622.893 268.883C622.893 268.333 620.643 267.883 617.893 267.883C615.143 267.883 612.893 268.333 612.893 268.883ZM454.893 269.883C454.893 270.433 457.143 270.883 459.893 270.883C462.643 270.883 464.893 270.433 464.893 269.883C464.893 269.333 462.643 268.883 459.893 268.883C457.143 268.883 454.893 269.333 454.893 269.883ZM779.627 270.89C773.099 271.184 769.061 271.728 769.988 272.187C770.866 272.622 774.916 272.753 778.988 272.478C783.061 272.203 788.306 271.957 790.643 271.931C792.98 271.904 794.893 271.461 794.893 270.945C794.893 270.429 793.986 270.092 792.877 270.195C791.769 270.298 785.806 270.611 779.627 270.89ZM678.393 271.89C671.019 272.229 668.217 272.653 669.893 273.176C671.268 273.604 675.093 273.754 678.393 273.507C681.693 273.261 686.782 273.02 689.702 272.971C692.622 272.923 694.768 272.489 694.47 272.008C694.173 271.527 692.909 271.189 691.661 271.258C690.414 271.327 684.443 271.611 678.393 271.89ZM717.393 271.883C716.994 272.529 721.196 272.883 729.275 272.883C736.53 272.883 742.034 272.463 742.393 271.883C742.792 271.237 738.59 270.883 730.511 270.883C723.256 270.883 717.752 271.303 717.393 271.883ZM612.893 272.883C612.893 273.433 615.143 273.883 617.893 273.883C620.643 273.883 622.893 273.433 622.893 272.883C622.893 272.333 620.643 271.883 617.893 271.883C615.143 271.883 612.893 272.333 612.893 272.883ZM631.893 272.883C631.893 273.433 634.143 273.883 636.893 273.883C639.643 273.883 641.893 273.433 641.893 272.883C641.893 272.333 639.643 271.883 636.893 271.883C634.143 271.883 631.893 272.333 631.893 272.883ZM506.893 273.883C506.893 274.505 512.56 274.883 521.893 274.883C531.226 274.883 536.893 274.505 536.893 273.883C536.893 273.261 531.226 272.883 521.893 272.883C512.56 272.883 506.893 273.261 506.893 273.883ZM569.893 273.986C569.893 274.73 571.585 274.883 575.089 274.457C582.184 273.592 582.396 272.883 575.56 272.883C572.095 272.883 569.893 273.312 569.893 273.986ZM454.893 274.883C454.893 275.433 457.143 275.883 459.893 275.883C462.643 275.883 464.893 275.433 464.893 274.883C464.893 274.333 462.643 273.883 459.893 273.883C457.143 273.883 454.893 274.333 454.893 274.883Z" fill="#00BB04"/>
</svg>
