<svg width="876" height="178" viewBox="0 0 876 178" fill="none" xmlns="http://www.w3.org/2000/svg">
<path fill-rule="evenodd" clip-rule="evenodd" d="M736.607 1.349C736.323 2.091 736.224 5.804 736.389 9.599C736.661 15.888 736.888 16.528 738.938 16.82C741.121 17.13 741.188 16.885 741.188 8.57C741.188 0.623 741.04 0 739.157 0C738.039 0 736.892 0.607001 736.607 1.349ZM717.306 1.739L712.925 2.128L713.585 8.575C714.449 17.002 715.653 20.143 717.718 19.35C718.811 18.931 719.213 17.759 719 15.619C718.713 12.755 718.953 12.474 721.938 12.187C724.378 11.951 725.188 11.391 725.188 9.937C725.188 8.39 724.483 8 721.688 8C717.407 8 717.062 6.175 721.188 5.35C723.241 4.939 724.188 4.158 724.188 2.875C724.188 1.844 723.626 1.079 722.938 1.175C722.251 1.271 719.716 1.525 717.306 1.739ZM752.188 2.864C752.188 4.375 752.81 5 754.313 5C756.096 5 756.351 5.443 755.897 7.75C753.994 17.412 753.989 17.71 755.693 18.364C758.112 19.292 759.188 18.276 759.188 15.066C759.188 8.823 760.317 6 762.813 6C764.521 6 765.188 5.439 765.188 4C765.188 2.717 764.521 2 763.328 2C762.304 2 759.379 1.714 756.828 1.364C752.558 0.779 752.188 0.898 752.188 2.864ZM791.924 10.654C791.445 11.463 790.697 14.592 789.688 20C789.432 21.375 788.966 23.68 788.653 25.123C787.682 29.604 790.897 29.681 795.465 25.285L799.398 21.5L798.704 25C798.322 26.925 797.791 29.452 797.524 30.614C797.202 32.017 797.63 32.956 798.796 33.403C800.082 33.896 802.111 32.534 806.37 28.32C809.57 25.153 812.188 22.197 812.188 21.75C812.188 19.606 808.839 19.96 806.324 22.37C802.675 25.866 802.158 25.692 803.352 21.369C804.159 18.445 804.048 17.431 802.78 16.164C801.348 14.732 800.908 14.879 797.9 17.795C796.081 19.558 794.339 21 794.029 21C793.719 21 793.947 19.197 794.535 16.994C795.421 13.677 795.331 12.714 794.015 11.398C793.14 10.524 792.199 10.189 791.924 10.654ZM817.241 35.032C814.462 38.371 812.188 41.434 812.188 41.838C812.188 42.705 820.206 49 821.311 49C823.383 49 823.125 46.543 820.797 44.114C819.362 42.616 818.188 41.078 818.188 40.695C818.188 39.326 820.598 40.037 822.723 42.033C824.625 43.819 825.039 43.884 826.133 42.567C827.163 41.325 826.887 40.645 824.533 38.619C820.847 35.447 822.285 33.956 826.222 36.867C829.108 39.001 831.188 39.005 831.188 36.876C831.188 35.918 826.345 31.36 823.594 29.73C822.718 29.211 820.646 30.941 817.241 35.032ZM837.671 48.626C836.03 50.05 833.162 52.485 831.297 54.036L827.906 56.857L831.131 60.928C832.905 63.168 834.782 65 835.303 65C837.209 65 837.381 61.87 835.584 59.885C833.766 57.876 833.815 57.776 838.713 53.495C843.18 49.59 843.533 48.987 842.171 47.591C840.801 46.188 840.363 46.289 837.671 48.626ZM852.721 64.947C852.399 65.467 849.448 67.371 846.162 69.177C842.876 70.984 840.188 72.817 840.188 73.251C840.188 75.102 845.4 82.094 846.492 81.708C847.731 81.27 847.774 79.999 846.672 76.392C846.14 74.646 846.861 73.803 850.858 71.495C853.515 69.962 855.842 68.582 856.029 68.429C856.217 68.276 856.074 67.217 855.712 66.075C855.014 63.876 853.691 63.376 852.721 64.947ZM856.438 87.662C848.97 90.242 848.61 90.539 850.094 92.881C850.832 94.047 851.704 94.012 855.679 92.658C860.957 90.859 860.926 91.09 855.022 97.515C853.055 99.655 852.422 101.177 852.837 102.765C853.564 105.544 854.917 105.555 862.585 102.838C869.841 100.268 870.444 99.83 869.631 97.711C869.059 96.222 868.681 96.219 865.056 97.669C862.883 98.539 860.901 99.047 860.653 98.798C860.404 98.549 861.776 96.505 863.701 94.256C866.726 90.722 867.068 89.815 866.22 87.583C865.055 84.52 865.546 84.516 856.438 87.662ZM374.188 103C374.188 104.619 373.521 105 370.688 105C367.855 105 367.188 105.381 367.188 107C367.188 108.111 366.521 109 365.688 109C364.755 109 364.188 109.944 364.188 111.5C364.188 113.056 363.621 114 362.688 114C361.855 114 361.188 114.889 361.188 116C361.188 117.794 361.855 118 367.649 118H374.111L374.399 138.961L374.688 159.922L368.188 160.211C362.312 160.472 361.657 160.716 361.368 162.75C361.095 164.678 361.524 165.017 364.368 165.116C366.194 165.18 366.9 165.438 365.938 165.689C363.6 166.3 363.691 169 366.049 169C367.496 169 367.804 169.558 367.433 171.5C366.986 173.837 367.222 174 371.04 174C374.26 174 375.003 174.318 374.55 175.5C374.15 176.541 374.619 177 376.081 177C378.38 177 378.941 175.47 376.938 174.662C376.251 174.385 377.825 174.122 380.438 174.079C384.425 174.013 385.188 173.692 385.188 172.083C385.188 171.029 384.626 169.94 383.938 169.662C383.251 169.385 383.926 169.122 385.438 169.079C388.263 168.998 389.307 166.618 386.938 165.662C386.251 165.385 386.926 165.122 388.438 165.079C390.684 165.014 391.188 164.541 391.188 162.5C391.188 160.09 390.955 160 384.688 160H378.188V139V118H384.688C390.521 118 391.188 117.795 391.188 116C391.188 114.699 390.521 114 389.282 114C387.871 114 387.511 113.483 387.895 112.012C388.225 110.751 387.825 109.798 386.801 109.405C385.914 109.065 385.188 107.934 385.188 106.893C385.188 105.359 384.448 105 381.282 105C377.868 105 377.441 104.748 377.898 103C378.3 101.465 377.929 101 376.305 101C374.855 101 374.188 101.63 374.188 103ZM17.202 105.893C7.30401 109.428 1.122 118.934 2.622 128.313C4.022 137.069 8.392 141.148 20.948 145.418C30.336 148.612 33.922 150.799 35.045 154.019C36.308 157.642 34.115 162.469 30.313 164.435C25.211 167.074 20.052 166.446 14.139 162.467L8.889 158.934L4.44501 163.707L0 168.48L3.344 171.281C8.255 175.395 18.906 178.373 26.167 177.664C37.852 176.522 45.925 170.435 48.17 161.073C51.445 147.425 45.412 139.402 27.781 133.956C16.468 130.462 13.258 124.776 19.228 118.806C22.054 115.98 22.679 115.795 28.069 116.185C32.089 116.476 34.741 117.29 36.707 118.836L39.544 121.067L43.866 116.826C46.243 114.492 48.188 112.035 48.188 111.365C48.188 110.695 45.757 108.958 42.785 107.504C35.312 103.848 24.784 103.185 17.202 105.893ZM463.901 105.358C453.993 108.156 448.188 115.513 448.188 125.274C448.188 135.762 452.662 140.998 464.984 144.935C474.475 147.967 478.13 149.986 479.732 153.085C481.88 157.239 481.554 158.834 477.788 162.6C475.045 165.343 473.608 166 470.353 166C465.204 166 461.396 164.548 457.97 161.28L455.252 158.687L450.47 163.093C447.84 165.517 445.688 167.883 445.688 168.35C445.688 170.74 454.262 175.163 461.995 176.762C469.734 178.362 470.583 178.361 476.744 176.745C488.641 173.625 494.123 167.006 494.166 155.71C494.208 144.584 489.532 139.481 474.688 134.458C466.381 131.646 461.188 127.658 461.188 124.09C461.188 123.057 462.544 120.76 464.201 118.986C467.049 115.937 467.529 115.784 473.016 116.181C476.822 116.456 479.858 117.341 481.839 118.752L484.859 120.902L489.555 116.135C494.042 111.579 494.17 111.294 492.433 109.722C487.219 105.003 472.91 102.814 463.901 105.358ZM88.986 117.257C84.34 128.365 71.933 156.982 66.823 168.374C65.374 171.605 64.188 174.663 64.188 175.168C64.188 175.674 67.4 175.955 71.326 175.794L78.463 175.5L81.42 167.724L84.376 159.949L99.439 160.224L114.502 160.5L117.534 168.25L120.566 176H127.96C132.182 176 135.212 175.594 135.021 175.053C134.838 174.532 128.163 158.794 120.188 140.078L105.688 106.05L99.688 106.033L93.688 106.015L88.986 117.257ZM152.188 141V176H158.688H165.188V161.5V147H180.688H196.188V141.526V136.052L180.938 135.776L165.688 135.5V126.5V117.5L181.938 117.225L198.188 116.95V111.475V106H175.188H152.188V141ZM236.168 118.25C233.244 124.988 226.428 140.566 221.02 152.87C215.612 165.173 211.188 175.43 211.188 175.663C211.188 175.897 214.437 175.955 218.408 175.794L225.627 175.5L228.691 168L231.756 160.5H246.69H261.624L264.749 168L267.874 175.5L275.031 175.794C279.338 175.971 282.188 175.689 282.188 175.086C282.188 174.219 273.595 153.854 266.751 138.5C265.526 135.75 261.919 127.313 258.737 119.75L252.952 106H247.217H241.483L236.168 118.25ZM300.188 141.048V176.095L306.438 175.798L312.688 175.5L312.347 160.692L312.007 145.883L316.696 146.192L321.385 146.5L329.537 161.218L337.688 175.935L345.438 175.968C349.7 175.985 353.188 175.732 353.188 175.404C353.188 175.077 352.341 173.614 351.305 172.154C349.205 169.194 335.188 146.091 335.188 145.591C335.188 145.415 337.221 144.495 339.705 143.547C346.132 141.092 349.462 136.367 349.999 128.936C350.625 120.278 349.598 116.495 345.556 112.569C339.886 107.063 335.188 106 316.51 106H300.188V141.048ZM516.188 141V176H523.188H530.188V161.167C530.188 153.008 530.374 146.146 530.602 145.917C530.829 145.688 538.029 145.635 546.602 145.799L562.188 146.098V161.097V176.095L568.22 175.798L574.252 175.5L574.298 141L574.344 106.5L568.295 106.203L562.245 105.906L561.967 119.703L561.688 133.5L545.938 133.775L530.188 134.051V120.025V106H523.188H516.188V141ZM618.992 112.712C617.509 116.446 611.141 131.27 604.84 145.655C598.539 160.04 593.078 172.772 592.704 173.95C592.047 176.02 592.264 176.081 599.237 175.795L606.45 175.5L609.483 167.725L612.516 159.95L627.509 160.225L642.502 160.5L645.534 168.25L648.566 176H655.877C659.898 176 663.188 175.732 663.188 175.404C663.188 175.077 660.498 168.664 657.211 161.154C653.923 153.644 647.284 138.275 642.458 127L633.683 106.5L627.685 106.212L621.688 105.925L618.992 112.712ZM680.188 141V176H686.688H693.188V161.626V147.252L704.438 146.8C716.27 146.325 721.437 144.702 725.533 140.173C729.936 135.304 731.418 124.88 728.65 118.254C726.5 113.11 724.448 111.074 718.688 108.368C714.067 106.197 712.419 106.019 696.938 106.01L680.188 106V141ZM751.188 141V176H775.188H799.188V169.959V163.917L782.438 164.002C773.226 164.049 765.109 164.067 764.4 164.043C763.425 164.01 763.183 161.759 763.4 154.75L763.688 145.5L779.438 145.225L795.188 144.949V139.475V134H779.188H763.188V125.5V117H780.188H797.188V111.5V106H774.188H751.188V141ZM380.972 113.734C378.377 113.939 373.877 113.941 370.972 113.738C368.066 113.536 370.188 113.368 375.688 113.365C381.188 113.363 383.566 113.528 380.972 113.734ZM860.927 114.959C858.858 115.361 857.018 115.871 856.837 116.094C856.656 116.317 856.773 118.975 857.098 122C857.523 125.96 858.108 127.5 859.188 127.5C860.261 127.5 860.706 126.36 860.753 123.5C860.831 118.654 863.391 117.9 864.186 122.488C864.511 124.367 865.403 125.61 866.59 125.839C868.271 126.163 868.405 125.757 867.82 122.101C867.295 118.819 867.466 118 868.676 118C869.732 118 870.188 119.037 870.188 121.441C870.188 125.104 871.7 126.888 873.382 125.206C874.001 124.587 874.126 122.187 873.701 119.093L873 114L868.844 114.115C866.558 114.178 862.996 114.558 860.927 114.959ZM332.177 118.752C338.355 121.847 338.765 129.005 333.01 133.289C330.875 134.879 328.647 135.305 322.01 135.391L313.688 135.5L313.4 126.25L313.113 117L320.9 117.002C326.315 117.003 329.751 117.536 332.177 118.752ZM711.963 119.004C717.668 122.482 718.404 128.57 713.659 133.028C711.692 134.875 709.788 135.331 702.243 135.761L693.188 136.277V126.639V117L700.938 117.004C706.919 117.007 709.436 117.463 711.963 119.004ZM109.161 148.25C109.176 148.662 104.688 149 99.188 149C93.688 149 89.188 148.819 89.188 148.599C89.188 148.378 91.142 143.091 93.53 136.849C95.917 130.607 98.204 124.6 98.61 123.5C99.172 121.977 100.516 124.602 104.241 134.5C106.932 141.65 109.146 147.838 109.161 148.25ZM250.569 131.674C252.536 136.72 254.778 142.683 255.55 144.924L256.954 149H246.669H236.383L241.286 135.838C243.982 128.598 246.188 122.448 246.188 122.171C246.188 120.865 247.27 123.211 250.569 131.674ZM632.589 135.61C635.119 142.271 637.188 148.008 637.188 148.36C637.188 148.712 632.688 149 627.188 149C621.688 149 617.188 148.856 617.188 148.679C617.188 148.008 625.452 126.414 626.378 124.664C626.913 123.655 627.494 122.98 627.67 123.164C627.846 123.349 630.06 128.95 632.589 135.61ZM857.818 139.25C856.767 143.171 857.133 145.64 859.017 147.345C862.024 150.067 865.019 149.401 867.321 145.5C869.9 141.128 871.412 141.013 871.002 145.22C870.595 149.394 873.766 150.53 874.761 146.566C875.757 142.597 874.429 139.042 871.538 137.943C868.53 136.799 866.847 137.826 864.596 142.177C863.794 143.73 862.698 145 862.162 145C860.854 145 860.915 141.287 862.237 140.47C862.953 140.027 862.915 139.376 862.114 138.411C860.385 136.327 858.503 136.695 857.818 139.25ZM855.275 160.338C853.319 163.992 854.26 168.281 857.338 169.749C860.583 171.297 862.499 170.655 864.216 167.447C866.023 164.071 867.506 164.379 866.972 168.019C866.407 171.871 868.574 174.015 870.118 171.13C870.707 170.031 871.188 167.516 871.188 165.541C871.188 162.607 870.719 161.772 868.623 160.975C865.188 159.669 865.464 159.575 862.158 163.193C859.136 166.502 856.857 166.36 858.96 162.994C860.302 160.844 859.613 158 857.75 158C857.077 158 855.963 159.052 855.275 160.338ZM380.916 165.73C378.841 165.946 375.691 165.943 373.916 165.722C372.14 165.501 373.838 165.324 377.688 165.328C381.538 165.333 382.99 165.513 380.916 165.73ZM379.438 169.723C377.65 169.945 374.726 169.945 372.938 169.723C371.15 169.502 372.613 169.32 376.188 169.32C379.763 169.32 381.226 169.502 379.438 169.723Z" fill="#178620"/>
</svg>
